<?xml version="1.0" encoding="utf-8"?>
<!-- Generator: Adobe Illustrator 19.0.0, SVG Export Plug-In . SVG Version: 6.00 Build 0)  -->
<svg version="1.1" id="图层_1" xmlns="http://www.w3.org/2000/svg" xmlns:xlink="http://www.w3.org/1999/xlink" x="0px" y="0px"
	 viewBox="0 0 60 60" style="enable-background:new 0 0 60 60;" xml:space="preserve">
<style type="text/css">
	.st0{fill:none;}
</style>
<path d="M-199.5,401.8"/>
<rect x="-425.3" y="-386.5" class="st0" width="910.8" height="820.7"/>
<path d="M60,13.7c-0.1-0.3-0.2-0.5-0.5-0.6L40.7,2.5c-0.3-0.2-0.6-0.2-0.9-0.1c-0.3,0.1-0.5,0.3-0.6,0.6c-1.1,3.1-4.9,5.3-9.2,5.3
	c-4.3,0-8.1-2.2-9.2-5.3c-0.1-0.3-0.3-0.5-0.6-0.6c-0.3-0.1-0.6-0.1-0.9,0.1L0.5,13.1c-0.2,0.1-0.4,0.4-0.5,0.6
	C0,14,0,14.3,0.2,14.5l6.7,11C7.1,25.9,7.6,26.1,8,26l4.8-1.2v30.5c0,0.6,0.5,1,1,1h32.3c0.6,0,1-0.5,1-1V24.8L52,26
	c0.4,0.1,0.9-0.1,1.1-0.5l6.7-11C60,14.3,60,14,60,13.7z M29.4,40.1c-2.3,0-4.1-0.8-4.7-1.4c-0.3-0.7-0.5-3.3-0.7-4.7l0.7-0.2
	c0.8,2.8,2.8,5.4,5.4,5.4c1.8,0,3.5-1,3.5-3.4c0-2.3-1.5-3.4-3.6-4.3c-2.7-1-5.2-2.5-5.2-5.2c0-2.7,2.4-5.2,6.2-5.1
	c1.6,0,2.6,0.3,3.4,0.7c0.3,1,0.7,3.2,0.8,4.4l-0.6,0.3C34,24.2,32.3,22,30.1,22c-2.1,0-3.2,1.5-3.2,3.2c0,2.1,2.1,3.2,3.9,3.9
	c3,1.2,5.2,2.7,5.2,5.6C35.9,38.1,32.8,40.1,29.4,40.1z M44,6.5c-1.7,3.9-7.1,8.1-14,8.1c-6.8,0-12.3-4.2-14-8.1
	c-0.2-0.5,0-1.1,0.5-1.4c0.5-0.2,1.1,0,1.4,0.5c1.4,3.4,6.3,6.8,12.1,6.8c5.7,0,10.6-3.5,12.1-6.8c0.2-0.5,0.8-0.8,1.4-0.5
	C44,5.3,44.2,5.9,44,6.5z"/>
</svg>
